<svg width="810" height="466" viewBox="0 0 810 466" fill="none" xmlns="http://www.w3.org/2000/svg">
<path d="M442.875 156.752C442.875 173.347 439.01 186.121 431.28 195.072C423.55 203.973 412.533 208.424 398.228 208.424C380.722 208.424 366.53 194.232 366.53 176.726V133.844C366.53 118.833 378.699 106.664 393.71 106.664C410.174 106.664 422.471 110.813 430.602 119.11C438.784 127.358 442.875 139.905 442.875 156.752ZM420.514 156.752C420.514 145.336 418.355 137.013 414.039 131.783C409.772 126.503 402.87 123.863 393.334 123.863C390.797 123.863 388.741 125.919 388.741 128.455V183.545C388.741 187.787 392.179 191.225 396.421 191.225C412.483 191.225 420.514 179.734 420.514 156.752Z" fill="#208A39"/>
<path d="M351.854 194.858C354.042 201.548 349.057 208.424 342.018 208.424C337.371 208.424 333.293 205.326 332.047 200.849L330.692 195.977C328.645 188.621 321.945 183.531 314.309 183.531H305.815C298.179 183.531 291.48 188.621 289.433 195.977L288.083 200.827C286.834 205.317 282.744 208.424 278.083 208.424C271.021 208.424 266.02 201.523 268.22 194.811L293.08 118.965C295.486 111.626 302.334 106.664 310.058 106.664C317.785 106.664 324.637 111.632 327.039 118.976L351.854 194.858ZM312.17 129.595C311.692 127.653 308.391 127.642 307.887 129.579C307.859 129.684 307.831 129.79 307.803 129.897C306.976 133.175 304.693 141.462 300.956 154.757C299.259 160.791 303.789 166.784 310.058 166.784C316.329 166.784 320.859 160.785 319.156 154.75C315.33 141.192 313.001 132.807 312.17 129.595Z" fill="#208A39"/>
<path d="M606.742 236.162C598.301 236.162 591.458 243.005 591.458 251.446V309.618C591.458 315.751 586.486 320.723 580.353 320.723C574.22 320.723 569.247 315.751 569.247 309.618V251.446C569.247 243.005 562.405 236.162 553.964 236.162H544.747C541.396 236.162 538.68 233.445 538.68 230.094C538.68 226.743 541.396 224.027 544.747 224.027H615.959C619.31 224.027 622.026 226.743 622.026 230.094C622.026 233.445 619.31 236.162 615.959 236.162H606.742Z" fill="#208A39"/>
<path d="M490.747 236.162C482.748 236.162 476.264 242.646 476.264 250.645C476.264 258.644 482.748 265.129 490.747 265.129H514.42C519.169 265.129 523.019 268.979 523.019 273.728C523.019 278.477 519.169 282.327 514.42 282.327H495.461C484.859 282.327 476.264 290.923 476.264 301.525V309.618C476.264 315.751 471.292 320.723 465.158 320.723C459.025 320.723 454.053 315.751 454.053 309.618V254.282C454.053 234.759 469.879 218.933 489.402 218.933H516.136C520.894 218.933 524.751 222.79 524.751 227.548C524.751 232.305 520.894 236.162 516.136 236.162H490.747Z" fill="#208A39"/>
<path d="M436.968 307.157C439.156 313.848 434.171 320.723 427.131 320.723C422.484 320.723 418.407 317.626 417.161 313.148L415.806 308.277C413.759 300.92 407.059 295.83 399.423 295.83H390.929C383.293 295.83 376.593 300.92 374.546 308.277L373.197 313.126C371.947 317.616 367.858 320.723 363.197 320.723C356.134 320.723 351.134 313.822 353.334 307.111L378.194 231.265C380.599 223.926 387.448 218.963 395.171 218.963C402.899 218.963 409.751 223.931 412.153 231.276L436.968 307.157ZM397.284 241.895C396.805 239.952 393.505 239.942 393 241.878C392.973 241.984 392.945 242.09 392.917 242.197C392.089 245.475 389.807 253.761 386.069 267.056C384.373 273.091 388.903 279.084 395.172 279.084C401.443 279.084 405.973 273.084 404.27 267.049C400.444 253.491 398.115 245.106 397.284 241.895Z" fill="#208A39"/>
<path d="M329.872 320.723C326.029 320.723 322.485 318.65 320.602 315.299L304.171 286.066C302.716 283.477 299.978 281.875 297.008 281.875C292.47 281.875 288.79 285.554 288.79 290.092V309.618C288.79 315.751 283.818 320.723 277.685 320.723C271.552 320.723 266.58 315.751 266.58 309.618V256.157C266.58 235.615 283.232 218.963 303.773 218.963C317.024 218.963 326.938 221.553 333.513 226.733C340.088 231.912 343.376 239.38 343.376 249.137C343.376 256.026 341.519 261.885 337.805 266.713C331.992 274.268 327.139 284.85 332.041 293.026L338.992 304.621C343.242 311.709 338.136 320.723 329.872 320.723ZM321.015 250.042C321.015 245.315 319.459 241.845 316.347 239.632C313.235 237.369 308.266 236.237 301.439 236.237C294.454 236.237 288.79 241.9 288.79 248.886V251.349C288.79 258.668 294.723 264.6 302.042 264.6C314.69 264.6 321.015 259.748 321.015 250.042Z" fill="#208A39"/>
<path d="M170.63 213.075C170.63 237.156 173.153 255.725 178.199 268.782C183.244 281.839 190.777 288.368 200.797 288.368C209.824 288.368 217.042 280.565 222.45 264.96C225.349 256.596 233.953 251.235 242.471 253.644C250.235 255.839 255.049 263.716 252.837 271.475C242.549 307.567 225.094 325.613 200.472 325.613C180.217 325.613 164.755 316.088 154.087 297.037C143.491 277.879 138.192 249.892 138.192 213.075C138.192 139.334 158.664 102.464 199.607 102.464C213.015 102.464 224.224 107.708 233.234 118.196C240.324 126.384 245.942 137.668 250.089 152.051C252.195 159.355 247.928 166.826 240.776 169.403C231.899 172.601 222.552 166.93 219.058 158.166C217.689 154.734 216.144 151.739 214.42 149.18C210.24 142.866 205.446 139.709 200.04 139.709C180.433 139.709 170.63 164.164 170.63 213.075Z" fill="#208A39"/>
<path d="M554.1 136.341C556.993 137.195 559.032 139.034 560.216 141.855C576.026 142.015 591.825 142.27 607.614 142.621C611.232 143.809 613.576 146.209 614.648 149.821V155.03C613.175 159.262 610.218 161.713 605.779 162.383V224.369H599.358V162.383H592.63V224.369H586.209V162.383H560.827C560.878 163.816 560.828 165.246 560.675 166.672C558.859 172.335 556.922 177.952 554.864 183.523C554.588 183.891 554.232 184.147 553.794 184.289C551.554 184.442 549.311 184.493 547.067 184.442C547.117 186.691 547.067 188.938 546.914 191.183C546.139 195.534 543.692 198.495 539.575 200.067C539.164 206.583 540.285 212.813 542.939 218.757C544.659 221.891 547.258 223.882 550.737 224.73C550.964 224.754 551.191 224.778 551.418 224.801C551.418 224.801 537.938 230.208 539.005 227.214C539.325 224.683 536.769 221.137 535.905 219.062C533.763 212.817 532.794 206.383 533 199.761C529.894 198.743 527.702 196.701 526.426 193.634C525.737 190.615 525.482 187.551 525.661 184.442C523.416 184.493 521.174 184.442 518.934 184.289C518.496 184.147 518.14 183.891 517.863 183.523C515.806 177.952 513.869 172.335 512.053 166.672C511.9 165.246 511.85 163.816 511.901 162.383H486.52L486.519 224.801V224.369H480.098V162.383H473.37V224.369H466.948V162.383C462.51 161.713 459.553 159.262 458.08 155.03V149.821C459.152 146.209 461.496 143.809 465.113 142.621C480.903 142.27 496.702 142.015 512.512 141.855C513.704 139.025 515.743 137.187 518.628 136.341H554.1ZM532.083 184.442C531.974 186.813 532.127 189.162 532.541 191.489C532.884 192.14 533.344 192.701 533.918 193.174C536.54 194.576 538.629 194.014 540.187 191.489C540.601 189.162 540.755 186.813 540.646 184.442H532.083ZM553.183 168.816C541.972 168.51 530.76 168.409 519.545 168.511C520.626 171.76 521.646 175.028 522.604 178.314H550.125C551.02 175.115 552.039 171.948 553.183 168.816ZM535.054 138.718C533.57 138.718 532.261 139.029 531.128 139.65C530.022 140.272 529.159 141.124 528.538 142.205C527.945 143.286 527.648 144.502 527.648 145.854C527.648 146.61 527.742 147.341 527.931 148.044C528.147 148.72 528.444 149.45 528.821 150.233C529.253 150.99 529.658 151.666 530.035 152.261C528.255 153.585 526.906 154.775 525.988 155.829C525.071 156.883 524.613 158.113 524.612 159.519C524.612 160.546 524.91 161.505 525.503 162.397C526.097 163.289 527 164.019 528.214 164.587C529.428 165.128 530.94 165.398 532.747 165.398C535.958 165.398 538.588 164.479 540.639 162.641C542.743 164.154 544.214 164.911 545.05 164.911H550.959C551.04 164.911 551.08 164.844 551.08 164.709C551.107 164.547 551.067 164.452 550.959 164.425C550.096 164.236 548.949 163.749 547.519 162.965C546.116 162.181 544.565 161.154 542.865 159.884C543.783 158.424 544.592 156.478 545.293 154.045C545.509 153.234 545.712 152.652 545.901 152.301C546.089 151.923 546.4 151.652 546.831 151.49C547.263 151.301 547.897 151.206 548.734 151.206C548.814 151.206 548.855 151.125 548.855 150.963C548.855 150.801 548.814 150.72 548.734 150.72L539.465 150.761C539.384 150.761 539.344 150.842 539.344 151.004C539.371 151.165 539.411 151.247 539.465 151.247C540.625 151.247 541.435 151.571 541.894 152.22C542.379 152.841 542.622 153.842 542.622 155.221C542.622 156.761 542.406 158.086 541.975 159.194C538.386 156.41 535.593 153.504 533.597 150.477C535.216 149.395 536.43 148.558 537.239 147.963C538.049 147.341 538.75 146.597 539.344 145.732C539.964 144.84 540.275 143.854 540.275 142.772C540.275 141.448 539.789 140.447 538.818 139.771C537.873 139.069 536.619 138.718 535.054 138.718ZM530.481 152.869C531.533 154.275 532.774 155.693 534.204 157.126C535.634 158.532 537.091 159.829 538.575 161.019C538.98 161.343 539.452 161.708 539.991 162.113C538.75 163.14 537.226 163.654 535.418 163.654C533.988 163.654 532.721 163.37 531.614 162.803C530.508 162.235 529.658 161.478 529.065 160.532C528.471 159.586 528.174 158.572 528.174 157.491C528.174 155.815 528.943 154.275 530.481 152.869ZM467.254 148.596C466.372 149.018 465.608 149.632 464.961 150.435C463.945 152.744 464.506 154.531 466.643 155.796C481.728 155.949 496.815 156 511.901 155.949V148.596H467.254ZM605.474 148.749C590.592 148.596 575.71 148.545 560.827 148.596V155.949C575.913 156 591 155.949 606.085 155.796C606.73 155.446 607.291 154.987 607.768 154.417C608.908 151.749 608.143 149.859 605.474 148.749ZM533.435 139.731C534.379 139.731 535.135 140.069 535.701 140.745C536.295 141.421 536.592 142.354 536.592 143.543C536.592 144.759 536.295 145.867 535.701 146.867C535.108 147.867 534.272 148.841 533.193 149.787C531.709 147.327 530.967 145.056 530.967 142.975C530.967 140.813 531.789 139.732 533.435 139.731Z" fill="#208A39"/>
</svg>
